HIERARCHY
ROOT hip
{
	OFFSET 0.000000 0.000000 0.000000 
	CHANNELS 6 Xposition Yposition Zposition Xrotation Zrotation Yrotation
	JOINT abdomen
	{
		OFFSET 0.000000 3.402643 0.000000 
		CHANNELS 3 Xrotation Zrotation Yrotation
		JOINT chest
		{
			OFFSET 0.000000 8.438565 -0.680529 
			CHANNELS 3 Xrotation Zrotation Yrotation
			JOINT neck
			{
				OFFSET 0.000000 10.207942 -0.272212 
				CHANNELS 3 Xrotation Zrotation Yrotation
				JOINT head
				{
					OFFSET 0.000000 3.130431 0.000000 
					CHANNELS 3 Xrotation Zrotation Yrotation
					End Site
					{
						OFFSET 0.000000 3.130435 0.000000 
					}
				}
			}
			JOINT lCollar
			{
				OFFSET 3.470700 6.669187 -0.816635 
				CHANNELS 3 Yrotation Zrotation Xrotation
				JOINT lShldr
				{
					OFFSET 3.198488 0.000000 0.000000 
					CHANNELS 3 Zrotation Yrotation Xrotation
					JOINT lForeArm
					{
						OFFSET 10.139888 0.000000 0.000000 
						CHANNELS 3 Yrotation Zrotation Xrotation
						JOINT lHand
						{
							OFFSET 8.370511 0.000000 0.000000 
							CHANNELS 3 Zrotation Yrotation Xrotation
							End Site
							{
								OFFSET 4.083176 0.000000 0.000000 
							}
						}
					}
				}
			}
			JOINT rCollar
			{
				OFFSET -3.470700 6.669187 -0.816635 
				CHANNELS 3 Yrotation Zrotation Xrotation
				JOINT rShldr
				{
					OFFSET -3.198488 0.000000 0.000000 
					CHANNELS 3 Zrotation Yrotation Xrotation
					JOINT rForeArm
					{
						OFFSET -10.139888 0.000000 0.000000 
						CHANNELS 3 Yrotation Zrotation Xrotation
						JOINT rHand
						{
							OFFSET -8.370511 0.000000 0.000000 
							CHANNELS 3 Zrotation Yrotation Xrotation
							End Site
							{
								OFFSET -4.083176 0.000000 0.000000 
							}
						}
					}
				}
			}
		}
	}
	JOINT lThigh
	{
		OFFSET 5.308129 -1.633274 1.361059 
		CHANNELS 3 Xrotation Zrotation Yrotation
		JOINT lShin
		{
			OFFSET -2.041588 -20.007561 0.000000 
			CHANNELS 3 Xrotation Zrotation Yrotation
			JOINT lFoot
			{
				OFFSET 0.000000 -19.190928 -1.224953 
				CHANNELS 3 Xrotation Yrotation Zrotation
				End Site
				{
					OFFSET 0.000000 -2.449906 4.627600 
				}
			}
		}
	}
	JOINT rThigh
	{
		OFFSET -5.308129 -1.633274 1.361059 
		CHANNELS 3 Xrotation Zrotation Yrotation
		JOINT rShin
		{
			OFFSET 2.041588 -20.007561 0.000000 
			CHANNELS 3 Xrotation Zrotation Yrotation
			JOINT rFoot
			{
				OFFSET 0.000000 -19.190928 -1.224953 
				CHANNELS 3 Xrotation Yrotation Zrotation
				End Site
				{
					OFFSET 0.000000 -2.449906 4.627600 
				}
			}
		}
	}
}
MOTION
Frames: 13
Frame Time: 0.033333
24.205097 43.157940 -17.811298 0.000000 1.230469 0.000000 20.722656 0.615234 0.117188 0.000000 0.000000 0.000000 -30.029295 0.869141 -56.855320 5.585938 2.041015 -0.224609 -2.822266 -0.097656 -0.019515 -73.779297 -18.095701 -22.561628 -27.890625 -1.035156 6.894707 8.642579 -0.283203 -6.210987 2.792969 0.068359 -0.019531 33.388672 15.644531 -69.626274 70.625000 1.435547 4.716552 -0.800781 -11.601563 -5.556642 -27.590618 20.513336 -5.044507 50.948608 -4.312109 -4.237453 -27.546465 0.839770 -13.088872 -37.285423 -22.839819 19.726189 53.811893 3.663696 3.965634 -16.839369 -1.518610 23.782816 
24.661800 43.338852 -17.811298 0.000000 1.054688 0.000000 20.722658 0.449219 0.058670 0.000000 0.000000 0.000000 -29.365234 1.201172 -58.241978 5.585938 2.041015 -0.224609 -2.822266 -0.097656 -0.019515 -71.367188 -17.529297 -22.151381 -28.750002 -1.660156 7.304722 7.578125 -0.400390 -6.201179 2.792969 0.068359 -0.019531 36.474609 15.634766 -69.860649 72.910156 1.494141 4.745839 -1.064453 -8.798827 -5.507813 -27.584473 20.329903 -3.772203 50.623222 -3.772832 -3.781387 -26.424623 0.426683 -13.112611 -36.733582 -22.303602 19.414215 52.390179 3.351536 3.890753 -16.372555 -1.293264 24.496651 
24.661800 43.505299 -17.811298 0.000000 0.703125 0.000000 20.722656 0.136719 -0.068359 0.000000 0.000000 0.000000 -28.525391 1.357422 -59.579842 5.585938 2.041015 -0.224609 -2.822266 -0.097656 -0.019515 -69.150391 -17.128906 -21.787107 -29.580078 -2.421875 7.812913 6.542969 -0.517578 -6.191494 2.792969 0.068359 -0.019531 39.736328 15.634766 -70.153618 75.195313 1.542969 4.423565 -1.318359 -6.181641 -5.479565 -27.348923 20.123968 -2.502469 50.282246 -3.558027 -3.646900 -25.912617 0.601934 -13.167465 -36.315254 -21.620499 19.753622 51.511272 3.322172 3.795834 -15.841669 -0.965214 24.598488 
25.118496 43.678967 -17.811298 0.000000 0.351563 0.000000 20.722656 -0.205078 -0.195312 0.000000 0.000000 0.000000 -27.832031 1.679688 -61.132809 5.585938 2.041015 -0.224609 -2.822266 -0.097656 -0.019515 -66.777344 -16.513672 -21.367186 -30.439451 -3.173828 8.281792 5.498047 -0.615234 -6.191509 2.792969 0.068359 -0.019531 42.822266 15.556641 -70.485657 77.480469 1.621094 4.443082 -1.582031 -3.554688 -5.458984 -27.159634 19.935843 -1.625447 50.104877 -3.587421 -3.635697 -25.192617 0.290684 -12.713446 -35.784107 -21.082672 19.714977 50.282104 3.332128 3.855833 -15.260627 -0.694759 24.892620 
25.575193 43.830936 -17.811298 0.000000 0.000000 0.000000 20.722656 -0.537109 -0.322266 0.000000 0.000000 0.000000 -27.001953 2.031250 -62.470360 5.585938 2.041015 -0.224609 -2.822266 -0.097656 -0.019515 -64.580078 -16.054689 -20.986328 -31.289066 -3.925781 8.740234 4.433594 -0.742188 -6.181640 2.792969 0.068359 -0.019531 46.093754 15.478517 -70.671227 79.951172 1.669922 4.287164 -1.816406 -0.927734 -5.439453 -27.380501 19.783579 -0.708889 49.777691 -3.079310 -3.365662 -24.286186 0.049804 -12.816317 -35.312500 -20.398586 19.480665 49.058968 2.969495 3.794698 -14.629539 -0.184519 25.105366 
26.031897 43.975666 -17.811298 0.000000 0.000000 0.000000 20.722656 -0.537109 -0.322266 0.000000 0.000000 0.000000 -26.328125 2.373047 -63.818356 5.585938 2.041015 -0.224609 -2.822266 -0.097656 -0.019515 -62.177731 -15.742189 -20.549526 -32.343750 -4.638672 9.151179 3.398438 -0.849609 -6.162237 2.792969 0.068359 -0.019531 49.277348 15.703126 -71.052048 82.070313 1.708984 4.130859 -2.050781 1.523438 -5.439454 -27.337934 19.927469 0.646777 49.796280 -2.874629 -3.276916 -23.888086 -0.234336 -12.751801 -34.710720 -19.696251 19.745392 48.003166 2.814708 3.823905 -14.296104 0.329020 25.328096 
26.031897 43.975666 -17.811298 0.000000 0.000000 0.000000 20.722656 -0.537109 -0.322266 0.000000 0.000000 0.000000 -26.591797 2.744141 -61.239769 5.585938 2.041015 -0.224609 -2.822266 -0.097656 -0.019515 -61.992191 -15.703124 -20.595703 -32.343750 -4.638672 9.151179 3.398438 -0.849609 -6.162237 2.792969 0.068359 -0.019531 47.900394 15.927734 -71.257088 82.070313 1.708984 4.130859 -2.050781 1.523438 -5.439454 -27.337934 19.927469 0.646777 49.796280 -2.874629 -3.276916 -23.888086 -0.234336 -12.751801 -34.710720 -19.696251 19.745392 48.003166 2.814708 3.823905 -14.296104 0.329020 25.328096 
26.031897 43.975666 -17.811298 0.000000 0.000000 0.000000 20.722656 -0.537109 -0.322266 0.000000 0.000000 0.000000 -26.699219 3.154297 -58.642044 5.585938 2.041015 -0.224609 -2.822266 -0.097656 -0.019515 -61.835938 -15.507813 -20.656908 -32.343750 -4.638672 9.151179 3.398438 -0.849609 -6.162237 2.792969 0.068359 -0.019531 46.650391 16.357422 -71.582031 82.070313 1.708984 4.130859 -2.050781 1.523438 -5.439454 -27.337934 19.927469 0.646777 49.796280 -2.874629 -3.276916 -23.888086 -0.234336 -12.751801 -34.710720 -19.696251 19.745392 48.003166 2.814708 3.823905 -14.296104 0.329020 25.328096 
26.031897 43.975666 -17.811298 0.000000 0.000000 0.000000 20.722656 -0.537109 -0.322266 0.000000 0.000000 0.000000 -26.982422 3.554688 -55.897831 5.585938 2.041015 -0.224609 -2.822266 -0.097656 -0.019515 -61.660152 -15.468749 -20.705729 -32.343750 -4.638672 9.151179 3.398438 -0.849609 -6.162237 2.792969 0.068359 -0.019531 45.644531 16.660156 -72.028450 82.070313 1.708984 4.130859 -2.050781 1.523438 -5.439454 -27.337934 19.927469 0.646777 49.796280 -2.874629 -3.276916 -23.888086 -0.234336 -12.751801 -34.710720 -19.696251 19.745392 48.003166 2.814708 3.823905 -14.296104 0.329020 25.328096 
26.031897 43.975666 -17.811298 0.000000 0.000000 0.000000 20.722656 -0.537109 -0.322266 0.000000 0.000000 0.000000 -27.070313 3.984375 -53.300098 5.585938 2.041015 -0.224609 -2.822266 -0.097656 -0.019515 -61.474613 -15.449221 -20.761723 -25.878906 -4.785157 8.438314 3.398438 -0.849609 -6.162237 2.792969 0.068359 -0.019531 44.394531 17.080078 -72.516663 82.070313 1.708984 4.130859 -2.050781 1.523438 -5.439454 -27.337934 19.927469 0.646777 49.796280 -2.874629 -3.276916 -23.888086 -0.234336 -12.751801 -34.710720 -19.696251 19.745392 48.003166 2.814708 3.823905 -14.296104 0.329020 25.328096 
26.031897 43.975666 -17.811298 0.000000 0.000000 0.000000 20.722656 -0.537109 -0.322266 0.000000 0.000000 0.000000 -27.353514 4.238281 -50.546154 5.585938 2.041015 -0.224609 -2.822266 -0.097656 -0.019515 -61.132809 -15.380860 -20.871729 -19.580078 -5.058594 7.862189 3.398438 -0.849609 -6.162237 2.792969 0.068359 -0.019531 42.968750 17.451172 -72.877937 82.070313 1.708984 4.130859 -2.050781 1.523438 -5.439454 -27.337934 19.927469 0.646777 49.796280 -2.874629 -3.276916 -23.888086 -0.234336 -12.751801 -34.710720 -19.696251 19.745392 48.003166 2.814708 3.823905 -14.296104 0.329020 25.328096 
26.031897 43.975666 -17.811298 0.000000 0.000000 0.000000 20.722656 -0.537109 -0.322266 0.000000 0.000000 0.000000 -27.441406 4.697266 -47.968750 5.585938 2.041015 -0.224609 -2.822266 -0.097656 -0.019515 -60.966793 -15.185548 -20.920527 -13.281251 -5.312500 7.324219 3.398438 -0.849609 -6.162237 2.792969 0.068359 -0.019531 41.699215 17.841799 -73.183594 82.070313 1.708984 4.130859 -2.050781 1.523438 -5.439454 -27.337934 19.927469 0.646777 49.796280 -2.874629 -3.276916 -23.888086 -0.234336 -12.751801 -34.710720 -19.696251 19.745392 48.003166 2.814708 3.823905 -14.296104 0.329020 25.328096 
26.031897 43.975666 -17.811298 0.000000 0.000000 0.000000 20.722656 -0.537109 -0.322266 0.000000 0.000000 0.000000 -27.519529 5.166016 -45.360451 5.585938 2.041015 -0.224609 -2.822266 -0.097656 -0.019515 -60.800781 -15.146484 -20.979113 -6.982422 -5.566407 6.661103 3.398438 -0.849609 -6.162237 2.792969 0.068359 -0.019531 40.488285 18.085938 -73.659081 82.070313 1.708984 4.130859 -2.050781 1.523438 -5.439454 -27.337934 19.927469 0.646777 49.796280 -2.874629 -3.276916 -23.888086 -0.234336 -12.751801 -34.710720 -19.696251 19.745392 48.003166 2.814708 3.823905 -14.296104 0.329020 25.328096 
